solid OpenSCAD_Model
  facet normal -0 0 1
    outer loop
      vertex 29 135.68 124.5
      vertex 71 133.68 124.5
      vertex 71 135.68 124.5
    endloop
  endfacet
  facet normal 0 0 1
    outer loop
      vertex 71 133.68 124.5
      vertex 29 135.68 124.5
      vertex 29 133.68 124.5
    endloop
  endfacet
  facet normal 1 -0 0
    outer loop
      vertex 71 133.68 124.5
      vertex 71 135.68 55.5
      vertex 71 135.68 124.5
    endloop
  endfacet
  facet normal 1 0 0
    outer loop
      vertex 71 135.68 55.5
      vertex 71 133.68 124.5
      vertex 71 133.68 55.5
    endloop
  endfacet
  facet normal 0 -1 0
    outer loop
      vertex 29 133.68 55.5
      vertex 71 133.68 124.5
      vertex 29 133.68 124.5
    endloop
  endfacet
  facet normal 0 -1 -0
    outer loop
      vertex 71 133.68 124.5
      vertex 29 133.68 55.5
      vertex 71 133.68 55.5
    endloop
  endfacet
  facet normal 0 1 -0
    outer loop
      vertex 71 135.68 55.5
      vertex 29 135.68 124.5
      vertex 71 135.68 124.5
    endloop
  endfacet
  facet normal 0 1 0
    outer loop
      vertex 29 135.68 124.5
      vertex 71 135.68 55.5
      vertex 29 135.68 55.5
    endloop
  endfacet
  facet normal -1 0 0
    outer loop
      vertex 29 133.68 55.5
      vertex 29 135.68 124.5
      vertex 29 135.68 55.5
    endloop
  endfacet
  facet normal -1 -0 0
    outer loop
      vertex 29 135.68 124.5
      vertex 29 133.68 55.5
      vertex 29 133.68 124.5
    endloop
  endfacet
  facet normal 0 0 -1
    outer loop
      vertex 29 133.68 55.5
      vertex 71 135.68 55.5
      vertex 71 133.68 55.5
    endloop
  endfacet
  facet normal -0 0 -1
    outer loop
      vertex 71 135.68 55.5
      vertex 29 133.68 55.5
      vertex 29 135.68 55.5
    endloop
  endfacet
endsolid OpenSCAD_Model
