solid OpenSCAD_Model
  facet normal -1 0 0
    outer loop
      vertex -20 -9.5 -37.5
      vertex -20 -6.5 -7.5
      vertex -20 -6.5 -37.5
    endloop
  endfacet
  facet normal -1 -0 0
    outer loop
      vertex -20 -6.5 -7.5
      vertex -20 -9.5 -37.5
      vertex -20 -6.5 7.5
    endloop
  endfacet
  facet normal -1 0 0
    outer loop
      vertex -20 -9.5 37.5
      vertex -20 -6.5 7.5
      vertex -20 -9.5 -37.5
    endloop
  endfacet
  facet normal -1 0 0
    outer loop
      vertex -20 -6.5 7.5
      vertex -20 -9.5 37.5
      vertex -20 -6.5 37.5
    endloop
  endfacet
  facet normal -1 0 0
    outer loop
      vertex -20 -6.5 -7.5
      vertex -20 6.5 7.5
      vertex -20 6.5 -7.5
    endloop
  endfacet
  facet normal -1 -0 0
    outer loop
      vertex -20 6.5 7.5
      vertex -20 -6.5 -7.5
      vertex -20 -6.5 7.5
    endloop
  endfacet
  facet normal 0 0 1
    outer loop
      vertex -10 6.5 7.5
      vertex -20 6.5 7.5
      vertex -10 -0.5 7.5
    endloop
  endfacet
  facet normal 0 0 1
    outer loop
      vertex 10 -0.5 7.5
      vertex 20 6.5 7.5
      vertex 10 6.5 7.5
    endloop
  endfacet
  facet normal 0 0 1
    outer loop
      vertex 20 6.5 7.5
      vertex 10 -0.5 7.5
      vertex 20 -6.5 7.5
    endloop
  endfacet
  facet normal -0 0 1
    outer loop
      vertex -10 -0.5 7.5
      vertex 20 -6.5 7.5
      vertex 10 -0.5 7.5
    endloop
  endfacet
  facet normal 0 0 1
    outer loop
      vertex -10 -0.5 7.5
      vertex -20 -6.5 7.5
      vertex 20 -6.5 7.5
    endloop
  endfacet
  facet normal 0 0 1
    outer loop
      vertex -20 -6.5 7.5
      vertex -10 -0.5 7.5
      vertex -20 6.5 7.5
    endloop
  endfacet
  facet normal 1 -0 0
    outer loop
      vertex 20 -9.5 37.5
      vertex 20 -6.5 7.5
      vertex 20 -6.5 37.5
    endloop
  endfacet
  facet normal 1 0 0
    outer loop
      vertex 20 -6.5 7.5
      vertex 20 -9.5 37.5
      vertex 20 -6.5 -7.5
    endloop
  endfacet
  facet normal 1 0 0
    outer loop
      vertex 20 -9.5 -37.5
      vertex 20 -6.5 -7.5
      vertex 20 -9.5 37.5
    endloop
  endfacet
  facet normal 1 0 0
    outer loop
      vertex 20 -6.5 -7.5
      vertex 20 -9.5 -37.5
      vertex 20 -6.5 -37.5
    endloop
  endfacet
  facet normal 1 -0 0
    outer loop
      vertex 20 -6.5 7.5
      vertex 20 6.5 -7.5
      vertex 20 6.5 7.5
    endloop
  endfacet
  facet normal 1 0 0
    outer loop
      vertex 20 6.5 -7.5
      vertex 20 -6.5 7.5
      vertex 20 -6.5 -7.5
    endloop
  endfacet
  facet normal 0 1 -0
    outer loop
      vertex 20 6.5 -7.5
      vertex 10 6.5 7.5
      vertex 20 6.5 7.5
    endloop
  endfacet
  facet normal 0 1 0
    outer loop
      vertex 10 6.5 7.5
      vertex 20 6.5 -7.5
      vertex 10 6.5 -7.5
    endloop
  endfacet
  facet normal 0 1 -0
    outer loop
      vertex -10 6.5 -7.5
      vertex -20 6.5 7.5
      vertex -10 6.5 7.5
    endloop
  endfacet
  facet normal 0 1 0
    outer loop
      vertex -20 6.5 7.5
      vertex -10 6.5 -7.5
      vertex -20 6.5 -7.5
    endloop
  endfacet
  facet normal 0 0 -1
    outer loop
      vertex 20 -6.5 -7.5
      vertex 10 -0.5 -7.5
      vertex 20 6.5 -7.5
    endloop
  endfacet
  facet normal 0 0 -1
    outer loop
      vertex 20 -6.5 -7.5
      vertex -10 -0.5 -7.5
      vertex 10 -0.5 -7.5
    endloop
  endfacet
  facet normal 0 0 -1
    outer loop
      vertex -20 -6.5 -7.5
      vertex -10 -0.5 -7.5
      vertex 20 -6.5 -7.5
    endloop
  endfacet
  facet normal 0 0 -1
    outer loop
      vertex -20 6.5 -7.5
      vertex -10 -0.5 -7.5
      vertex -20 -6.5 -7.5
    endloop
  endfacet
  facet normal 0 0 -1
    outer loop
      vertex -10 -0.5 -7.5
      vertex -20 6.5 -7.5
      vertex -10 6.5 -7.5
    endloop
  endfacet
  facet normal -0 0 -1
    outer loop
      vertex 20 6.5 -7.5
      vertex 10 -0.5 -7.5
      vertex 10 6.5 -7.5
    endloop
  endfacet
  facet normal 0 1 -0
    outer loop
      vertex 20 -6.5 7.5
      vertex -20 -6.5 37.5
      vertex 20 -6.5 37.5
    endloop
  endfacet
  facet normal 0 1 0
    outer loop
      vertex -20 -6.5 37.5
      vertex 20 -6.5 7.5
      vertex -20 -6.5 7.5
    endloop
  endfacet
  facet normal 0 1 -0
    outer loop
      vertex 20 -6.5 -37.5
      vertex -20 -6.5 -7.5
      vertex 20 -6.5 -7.5
    endloop
  endfacet
  facet normal 0 1 0
    outer loop
      vertex -20 -6.5 -7.5
      vertex 20 -6.5 -37.5
      vertex -20 -6.5 -37.5
    endloop
  endfacet
  facet normal 1 -0 0
    outer loop
      vertex -10 -0.5 7.5
      vertex -10 6.5 -7.5
      vertex -10 6.5 7.5
    endloop
  endfacet
  facet normal 1 0 0
    outer loop
      vertex -10 6.5 -7.5
      vertex -10 -0.5 7.5
      vertex -10 -0.5 -7.5
    endloop
  endfacet
  facet normal -1 0 0
    outer loop
      vertex 10 -0.5 -7.5
      vertex 10 6.5 7.5
      vertex 10 6.5 -7.5
    endloop
  endfacet
  facet normal -1 -0 0
    outer loop
      vertex 10 6.5 7.5
      vertex 10 -0.5 -7.5
      vertex 10 -0.5 7.5
    endloop
  endfacet
  facet normal 0 1 -0
    outer loop
      vertex 10 -0.5 -7.5
      vertex -10 -0.5 7.5
      vertex 10 -0.5 7.5
    endloop
  endfacet
  facet normal 0 1 0
    outer loop
      vertex -10 -0.5 7.5
      vertex 10 -0.5 -7.5
      vertex -10 -0.5 -7.5
    endloop
  endfacet
  facet normal -0 0 1
    outer loop
      vertex -20 -6.5 37.5
      vertex 20 -9.5 37.5
      vertex 20 -6.5 37.5
    endloop
  endfacet
  facet normal 0 0 1
    outer loop
      vertex 20 -9.5 37.5
      vertex -20 -6.5 37.5
      vertex -20 -9.5 37.5
    endloop
  endfacet
  facet normal 0 0 -1
    outer loop
      vertex -20 -9.5 -37.5
      vertex 20 -6.5 -37.5
      vertex 20 -9.5 -37.5
    endloop
  endfacet
  facet normal -0 0 -1
    outer loop
      vertex 20 -6.5 -37.5
      vertex -20 -9.5 -37.5
      vertex -20 -6.5 -37.5
    endloop
  endfacet
  facet normal 0 -1 0
    outer loop
      vertex -20 -9.5 -37.5
      vertex 20 -9.5 37.5
      vertex -20 -9.5 37.5
    endloop
  endfacet
  facet normal 0 -1 -0
    outer loop
      vertex 20 -9.5 37.5
      vertex -20 -9.5 -37.5
      vertex 20 -9.5 -37.5
    endloop
  endfacet
endsolid OpenSCAD_Model
