  0
SECTION
  2
HEADER
  9
$ACADVER
  1
AC1014
  9
$HANDSEED
  5
FFFF
  9
$MEASUREMENT
 70
     1
  0
ENDSEC
  0
SECTION
  2
TABLES
  0
TABLE
  2
VPORT
  5
8
330
0
100
AcDbSymbolTable
 70
     4
  0
VPORT
  5
2E
330
8
100
AcDbSymbolTableRecord
100
AcDbViewportTableRecord
  2
*ACTIVE
 70
     0
 10
0.0
 20
0.0
 11
1.0
 21
1.0
 12
210.0
 22
148.5
 13
0.0
 23
0.0
 14
10.0
 24
10.0
 15
10.0
 25
10.0
 16
0.0
 26
0.0
 36
1.0
 17
0.0
 27
0.0
 37
0.0
 40
341.0
 41
1.24
 42
50.0
 43
0.0
 44
0.0
 50
0.0
 51
0.0
 71
     0
 72
   100
 73
     1
 74
     3
 75
     0
 76
     0
 77
     0
 78
     0
  0
ENDTAB
  0
TABLE
  2
LTYPE
  5
5
330
0
100
AcDbSymbolTable
 70
     1
  0
LTYPE
  5
14
330
5
100
AcDbSymbolTableRecord
100
AcDbLinetypeTableRecord
  2
BYBLOCK
 70
     0
  3

 72
    65
 73
     0
 40
0.0
  0
LTYPE
  5
15
330
5
100
AcDbSymbolTableRecord
100
AcDbLinetypeTableRecord
  2
BYLAYER
 70
     0
  3

 72
    65
 73
     0
 40
0.0
  0
LTYPE
  5
16
330
5
100
AcDbSymbolTableRecord
100
AcDbLinetypeTableRecord
  2
CONTINUOUS
 70
     0
  3
Solid line
 72
    65
 73
     0
 40
0.0
  0
ENDTAB
  0
TABLE
  2
LAYER
  5
2
100
AcDbSymbolTable
 70
2
  0
LAYER
  5
50
100
AcDbSymbolTableRecord
100
AcDbLayerTableRecord
  2
0
 70
0
  6
CONTINUOUS
  0
LAYER
  5
51
100
AcDbSymbolTableRecord
100
AcDbLayerTableRecord
  2
Capa_1
 70
0
  6
CONTINUOUS
  0
ENDTAB
  0
TABLE
  2
STYLE
  5
3
330
0
100
AcDbSymbolTable
 70
     1
  0
STYLE
  5
11
330
3
100
AcDbSymbolTableRecord
100
AcDbTextStyleTableRecord
  2
STANDARD
 70
     0
 40
0.0
 41
1.0
 50
0.0
 71
     0
 42
2.5
  3
txt
  4

  0
ENDTAB
  0
TABLE
  2
VIEW
  5
6
330
0
100
AcDbSymbolTable
 70
     0
  0
ENDTAB
  0
TABLE
  2
UCS
  5
7
330
0
100
AcDbSymbolTable
 70
     0
  0
ENDTAB
  0
TABLE
  2
APPID
  5
9
330
0
100
AcDbSymbolTable
 70
     2
  0
APPID
  5
12
330
9
100
AcDbSymbolTableRecord
100
AcDbRegAppTableRecord
  2
ACAD
 70
     0
  0
ENDTAB
  0
TABLE
  2
DIMSTYLE
  5
A
330
0
100
AcDbSymbolTable
 70
     1
  0
DIMSTYLE
105
27
330
A
100
AcDbSymbolTableRecord
100
AcDbDimStyleTableRecord
  2
ISO-25
 70
     0
  3

  4

  5

  6

  7

 40
1.0
 41
2.5
 42
0.625
 43
3.75
 44
1.25
 45
0.0
 46
0.0
 47
0.0
 48
0.0
140
2.5
141
2.5
142
0.0
143
0.03937007874016
144
1.0
145
0.0
146
1.0
147
0.625
 71
     0
 72
     0
 73
     0
 74
     0
 75
     0
 76
     0
 77
     1
 78
     8
170
     0
171
     3
172
     1
173
     0
174
     0
175
     0
176
     0
177
     0
178
     0
270
     2
271
     2
272
     2
273
     2
274
     3
340
11
275
     0
280
     0
281
     0
282
     0
283
     0
284
     8
285
     0
286
     0
287
     3
288
     0
  0
ENDTAB
  0
TABLE
  2
BLOCK_RECORD
  5
1
330
0
100
AcDbSymbolTable
 70
     1
  0
BLOCK_RECORD
  5
1F
330
1
100
AcDbSymbolTableRecord
100
AcDbBlockTableRecord
  2
*MODEL_SPACE
  0
BLOCK_RECORD
  5
1B
330
1
100
AcDbSymbolTableRecord
100
AcDbBlockTableRecord
  2
*PAPER_SPACE
  0
ENDTAB
  0
ENDSEC
  0
SECTION
  2
BLOCKS
  0
BLOCK
  5
20
330
1F
100
AcDbEntity
  8
0
100
AcDbBlockBegin
  2
*MODEL_SPACE
 70
     0
 10
0.0
 20
0.0
 30
0.0
  3
*MODEL_SPACE
  1

  0
ENDBLK
  5
21
330
1F
100
AcDbEntity
  8
0
100
AcDbBlockEnd
  0
BLOCK
  5
1C
330
1B
100
AcDbEntity
 67
     1
  8
0
100
AcDbBlockBegin
  2
*PAPER_SPACE
  1

  0
ENDBLK
  5
1D
330
1B
100
AcDbEntity
 67
     1
  8
0
100
AcDbBlockEnd
  0
ENDSEC
  0
SECTION
  2
ENTITIES
  0
LWPOLYLINE
  5
100
100
AcDbEntity
  8
Capa_1
 62
7
100
AcDbPolyline
 90
192
 70
1
 10
4.968158
 20
0.527606
 30
0.0
 10
5.090903
 20
0.537490
 30
0.0
 10
5.418188
 20
0.483883
 30
0.0
 10
5.873107
 20
0.293539
 30
0.0
 10
5.873107
 20
-0.025315
 30
0.0
 10
5.418188
 20
-0.215659
 30
0.0
 10
5.090903
 20
-0.269266
 30
0.0
 10
4.968158
 20
-0.259382
 30
0.0
 10
4.903502
 20
-0.750509
 30
0.0
 10
5.024620
 20
-0.772731
 30
0.0
 10
5.326880
 20
-0.909219
 30
0.0
 10
5.717032
 20
-1.210821
 30
0.0
 10
5.634506
 20
-1.518809
 30
0.0
 10
5.145823
 20
-1.584926
 30
0.0
 10
4.815816
 20
-1.551998
 30
0.0
 10
4.699812
 20
-1.510684
 30
0.0
 10
4.510246
 20
-1.968341
 30
0.0
 10
4.621488
 20
-2.021152
 30
0.0
 10
4.878120
 20
-2.231221
 30
0.0
 10
5.176917
 20
-2.623524
 30
0.0
 10
5.017492
 20
-2.899659
 30
0.0
 10
4.528349
 20
-2.837042
 30
0.0
 10
4.218107
 20
-2.719827
 30
0.0
 10
4.116750
 20
-2.649895
 30
0.0
 10
3.815191
 20
-3.042894
 30
0.0
 10
3.908973
 20
-3.122697
 30
0.0
 10
4.102494
 20
-3.392027
 30
0.0
 10
4.289573
 20
-3.848298
 30
0.0
 10
4.064111
 20
-4.073760
 30
0.0
 10
3.607840
 20
-3.886682
 30
0.0
 10
3.338510
 20
-3.693160
 30
0.0
 10
3.258706
 20
-3.599378
 30
0.0
 10
2.865707
 20
-3.900937
 30
0.0
 10
2.935639
 20
-4.002294
 30
0.0
 10
3.052855
 20
-4.312536
 30
0.0
 10
3.115471
 20
-4.801679
 30
0.0
 10
2.839336
 20
-4.961104
 30
0.0
 10
2.447033
 20
-4.662308
 30
0.0
 10
2.236965
 20
-4.405675
 30
0.0
 10
2.184154
 20
-4.294434
 30
0.0
 10
1.726496
 20
-4.484000
 30
0.0
 10
1.767811
 20
-4.600003
 30
0.0
 10
1.800738
 20
-4.930010
 30
0.0
 10
1.734622
 20
-5.418693
 30
0.0
 10
1.426633
 20
-5.501219
 30
0.0
 10
1.125032
 20
-5.111067
 30
0.0
 10
0.988544
 20
-4.808807
 30
0.0
 10
0.966322
 20
-4.687689
 30
0.0
 10
0.475194
 20
-4.752345
 30
0.0
 10
0.485079
 20
-4.875091
 30
0.0
 10
0.431472
 20
-5.202375
 30
0.0
 10
0.241128
 20
-5.657294
 30
0.0
 10
-0.077727
 20
-5.657294
 30
0.0
 10
-0.268071
 20
-5.202375
 30
0.0
 10
-0.321678
 20
-4.875091
 30
0.0
 10
-0.311793
 20
-4.752345
 30
0.0
 10
-0.802921
 20
-4.687689
 30
0.0
 10
-0.825143
 20
-4.808807
 30
0.0
 10
-0.961631
 20
-5.111067
 30
0.0
 10
-1.263232
 20
-5.501219
 30
0.0
 10
-1.571220
 20
-5.418693
 30
0.0
 10
-1.637337
 20
-4.930010
 30
0.0
 10
-1.604410
 20
-4.600003
 30
0.0
 10
-1.563095
 20
-4.484000
 30
0.0
 10
-2.020753
 20
-4.294434
 30
0.0
 10
-2.073563
 20
-4.405675
 30
0.0
 10
-2.283632
 20
-4.662308
 30
0.0
 10
-2.675935
 20
-4.961104
 30
0.0
 10
-2.952070
 20
-4.801679
 30
0.0
 10
-2.889454
 20
-4.312536
 30
0.0
 10
-2.772238
 20
-4.002294
 30
0.0
 10
-2.702306
 20
-3.900937
 30
0.0
 10
-3.095305
 20
-3.599378
 30
0.0
 10
-3.175109
 20
-3.693160
 30
0.0
 10
-3.444438
 20
-3.886682
 30
0.0
 10
-3.900710
 20
-4.073760
 30
0.0
 10
-4.126172
 20
-3.848298
 30
0.0
 10
-3.939093
 20
-3.392027
 30
0.0
 10
-3.745571
 20
-3.122697
 30
0.0
 10
-3.651790
 20
-3.042894
 30
0.0
 10
-3.953349
 20
-2.649895
 30
0.0
 10
-4.054705
 20
-2.719827
 30
0.0
 10
-4.364948
 20
-2.837042
 30
0.0
 10
-4.854091
 20
-2.899659
 30
0.0
 10
-5.013516
 20
-2.623524
 30
0.0
 10
-4.714719
 20
-2.231221
 30
0.0
 10
-4.458086
 20
-2.021152
 30
0.0
 10
-4.346845
 20
-1.968341
 30
0.0
 10
-4.536411
 20
-1.510684
 30
0.0
 10
-4.652415
 20
-1.551998
 30
0.0
 10
-4.982422
 20
-1.584926
 30
0.0
 10
-5.471104
 20
-1.518809
 30
0.0
 10
-5.553631
 20
-1.210821
 30
0.0
 10
-5.163479
 20
-0.909219
 30
0.0
 10
-4.861219
 20
-0.772731
 30
0.0
 10
-4.740100
 20
-0.750509
 30
0.0
 10
-4.804757
 20
-0.259382
 30
0.0
 10
-4.927502
 20
-0.269266
 30
0.0
 10
-5.254786
 20
-0.215659
 30
0.0
 10
-5.709706
 20
-0.025315
 30
0.0
 10
-5.709706
 20
0.293539
 30
0.0
 10
-5.254786
 20
0.483883
 30
0.0
 10
-4.927502
 20
0.537490
 30
0.0
 10
-4.804757
 20
0.527606
 30
0.0
 10
-4.740100
 20
1.018733
 30
0.0
 10
-4.861219
 20
1.040956
 30
0.0
 10
-5.163479
 20
1.177443
 30
0.0
 10
-5.553631
 20
1.479045
 30
0.0
 10
-5.471104
 20
1.787033
 30
0.0
 10
-4.982422
 20
1.853150
 30
0.0
 10
-4.652415
 20
1.820222
 30
0.0
 10
-4.536411
 20
1.778908
 30
0.0
 10
-4.346845
 20
2.236565
 30
0.0
 10
-4.458086
 20
2.289376
 30
0.0
 10
-4.714719
 20
2.499445
 30
0.0
 10
-5.013516
 20
2.891748
 30
0.0
 10
-4.854091
 20
3.167883
 30
0.0
 10
-4.364948
 20
3.105266
 30
0.0
 10
-4.054705
 20
2.988051
 30
0.0
 10
-3.953349
 20
2.918119
 30
0.0
 10
-3.651790
 20
3.311118
 30
0.0
 10
-3.745571
 20
3.390921
 30
0.0
 10
-3.939093
 20
3.660251
 30
0.0
 10
-4.126172
 20
4.116522
 30
0.0
 10
-3.900710
 20
4.341984
 30
0.0
 10
-3.444438
 20
4.154906
 30
0.0
 10
-3.175109
 20
3.961384
 30
0.0
 10
-3.095305
 20
3.867602
 30
0.0
 10
-2.702306
 20
4.169161
 30
0.0
 10
-2.772238
 20
4.270518
 30
0.0
 10
-2.889454
 20
4.580760
 30
0.0
 10
-2.952070
 20
5.069904
 30
0.0
 10
-2.675935
 20
5.229328
 30
0.0
 10
-2.283632
 20
4.930532
 30
0.0
 10
-2.073563
 20
4.673899
 30
0.0
 10
-2.020753
 20
4.562658
 30
0.0
 10
-1.563095
 20
4.752224
 30
0.0
 10
-1.604410
 20
4.868228
 30
0.0
 10
-1.637337
 20
5.198234
 30
0.0
 10
-1.571220
 20
5.686917
 30
0.0
 10
-1.263232
 20
5.769443
 30
0.0
 10
-0.961631
 20
5.379291
 30
0.0
 10
-0.825143
 20
5.077031
 30
0.0
 10
-0.802921
 20
4.955913
 30
0.0
 10
-0.311793
 20
5.020569
 30
0.0
 10
-0.321678
 20
5.143315
 30
0.0
 10
-0.268071
 20
5.470599
 30
0.0
 10
-0.077727
 20
5.925518
 30
0.0
 10
0.241128
 20
5.925518
 30
0.0
 10
0.431472
 20
5.470599
 30
0.0
 10
0.485079
 20
5.143315
 30
0.0
 10
0.475194
 20
5.020569
 30
0.0
 10
0.966322
 20
4.955913
 30
0.0
 10
0.988544
 20
5.077031
 30
0.0
 10
1.125032
 20
5.379291
 30
0.0
 10
1.426633
 20
5.769443
 30
0.0
 10
1.734622
 20
5.686917
 30
0.0
 10
1.800738
 20
5.198234
 30
0.0
 10
1.767811
 20
4.868228
 30
0.0
 10
1.726496
 20
4.752224
 30
0.0
 10
2.184154
 20
4.562658
 30
0.0
 10
2.236965
 20
4.673899
 30
0.0
 10
2.447033
 20
4.930532
 30
0.0
 10
2.839336
 20
5.229328
 30
0.0
 10
3.115471
 20
5.069904
 30
0.0
 10
3.052855
 20
4.580760
 30
0.0
 10
2.935639
 20
4.270518
 30
0.0
 10
2.865707
 20
4.169161
 30
0.0
 10
3.258706
 20
3.867602
 30
0.0
 10
3.338510
 20
3.961384
 30
0.0
 10
3.607840
 20
4.154906
 30
0.0
 10
4.064111
 20
4.341984
 30
0.0
 10
4.289573
 20
4.116522
 30
0.0
 10
4.102494
 20
3.660251
 30
0.0
 10
3.908973
 20
3.390921
 30
0.0
 10
3.815191
 20
3.311118
 30
0.0
 10
4.116750
 20
2.918119
 30
0.0
 10
4.218107
 20
2.988051
 30
0.0
 10
4.528349
 20
3.105266
 30
0.0
 10
5.017492
 20
3.167883
 30
0.0
 10
5.176917
 20
2.891748
 30
0.0
 10
4.878120
 20
2.499445
 30
0.0
 10
4.621488
 20
2.289376
 30
0.0
 10
4.510246
 20
2.236565
 30
0.0
 10
4.699812
 20
1.778908
 30
0.0
 10
4.815816
 20
1.820222
 30
0.0
 10
5.145823
 20
1.853150
 30
0.0
 10
5.634506
 20
1.787033
 30
0.0
 10
5.717032
 20
1.479045
 30
0.0
 10
5.326880
 20
1.177443
 30
0.0
 10
5.024620
 20
1.040956
 30
0.0
 10
4.903502
 20
1.018733
 30
0.0
  0
ENDSEC
  0
SECTION
  2
OBJECTS
  0
DICTIONARY
  5
C
330
0
100
AcDbDictionary
  3
ACAD_GROUP
350
D
  3
ACAD_MLINESTYLE
350
17
  0
DICTIONARY
  5
D
330
C
100
AcDbDictionary
  0
DICTIONARY
  5
1A
330
C
100
AcDbDictionary
  0
DICTIONARY
  5
17
330
C
100
AcDbDictionary
  3
STANDARD
350
18
  0
DICTIONARY
  5
19
330
C
100
AcDbDictionary
  0
ENDSEC
  0
EOF
